PathFileType	4	(X/Y/Z)	G:\TennisProject\Miami_Dimitrov_Sinner_masked_Sports2D\Miami_Dimitrov_Sinner_masked_Sports2D_m_person01.trc
DataRate	CameraRate	NumFrames	NumMarkers	Units	OrigDataRate	OrigDataStartFrame	OrigNumFrames
25	25	8	22	m	25	436	499
Frame#	Time	Hip			RHip			RKnee			RAnkle			RBigToe			RSmallToe			RHeel			LHip			LKnee			LAnkle			LBigToe			LSmallToe			LHeel			Neck			Head			Nose			RShoulder			RElbow			RWrist			LShoulder			LElbow			LWrist		
		X1	Y1	Z1	X2	Y2	Z2	X3	Y3	Z3	X4	Y4	Z4	X5	Y5	Z5	X6	Y6	Z6	X7	Y7	Z7	X8	Y8	Z8	X9	Y9	Z9	X10	Y10	Z10	X11	Y11	Z11	X12	Y12	Z12	X13	Y13	Z13	X14	Y14	Z14	X15	Y15	Z15	X16	Y16	Z16	X17	Y17	Z17	X18	Y18	Z18	X19	Y19	Z19	X20	Y20	Z20	X21	Y21	Z21	X22	Y22	Z22
436	17.44	11.492921778267702	-8.415424643561996	0.0	11.627183719837042	-8.384137703045466	0.0	11.352540818417742	-9.39847678706822	0.0	11.495089935684632	-10.351608957114026	0.0	11.082602704973286	-10.691416264885396	0.0	11.152124174386778	-10.628058805961095	0.0	11.584280568731588	-10.53585153563992	0.0	11.435971484044837	-8.416674526599257	0.0	11.287645898651707	-9.52277759140545	0.0	11.779300978273554	-10.497624142885174	0.0	11.503773759831958	-10.890937457756483	0.0	11.595972630379322	-10.878726224586082	0.0	11.962017904459282	-10.60307248502285	0.0	11.26596216127721	-6.936641570558945	0.0	10.885609976177518	-6.380227515552852	0.0	10.993387654500854	-6.7595677018088915	0.0	11.640973178210194	-6.919727713189643	0.0	12.258411239971014	-6.843033006570402	0.0	12.892856004051849	-6.664181237629171	0.0	11.041050232125277	-7.092770853099959	0.0	11.359716554386443	-7.314239887241767	0.0	11.817479521767714	-7.438960925509205	0.0
437	17.48	11.380067367094552	-8.383259112326781	0.0	11.556080956992176	-8.368003467273818	0.0	11.310274434190328	-9.367798207409916	0.0	11.47585297529928	-10.336020504744926	0.0	11.087479285118592	-10.659577664312469	0.0	11.167056699746126	-10.61609013600002	0.0	11.560713116201349	-10.523570061745133	0.0	11.269557606673615	-8.409462030643658	0.0	11.09009960345634	-9.494707802456691	0.0	11.504426542392737	-10.507080475005132	0.0	11.179627229081401	-10.868148567308612	0.0	11.255429391725986	-10.880757339076924	0.0	11.671643337755993	-10.641263774558283	0.0	11.140673637643102	-6.878289070347626	0.0	10.811175215473284	-6.347365146576059	0.0	10.885458578757586	-6.72014602529516	0.0	11.53190496416028	-6.854315525811531	0.0	12.146174193458448	-6.721602894935882	0.0	12.754899706822556	-6.469865792080665	0.0	10.90554220490794	-7.077389980496631	0.0	11.252483989502899	-7.338209354843011	0.0	11.682585003965315	-7.428334370825729	0.0
438	17.52	11.281430006669096	-8.352371649189735	0.0	11.475742158160593	-8.34779093289977	0.0	11.254594846578874	-9.31270078645835	0.0	11.458537232983556	-10.304603442868567	0.0	11.143284384182161	-10.582304115909553	0.0	11.234219181399517	-10.556895507588402	0.0	11.543956002808521	-10.484987089003925	0.0	11.124225545980314	-8.390861384370435	0.0	10.882251773392918	-9.439076966492612	0.0	11.191928913930896	-10.502535875954846	0.0	10.829555691625904	-10.855250357982696	0.0	10.885438019395961	-10.883930312657917	0.0	11.349493016357203	-10.654414052830592	0.0	10.999206087254702	-6.839096400395273	0.0	10.733091238526312	-6.323668075198873	0.0	10.768559342937847	-6.693866492089171	0.0	11.410355051784805	-6.826797192371965	0.0	12.002615281461516	-6.660962089981445	0.0	12.608141127965407	-6.3797562332368045	0.0	10.76682262511054	-7.087747755427982	0.0	11.120338826153873	-7.431117085545985	0.0	11.455467070268368	-7.527786876971682	0.0
439	17.56	11.187614620544016	-8.33220841732762	0.0	11.376802070158464	-8.31922159966638	0.0	11.185917800575982	-9.261148953287899	0.0	11.43798451077032	-10.276853244225451	0.0	11.183061348781363	-10.547702443557199	0.0	11.290255317754218	-10.52609832976341	0.0	11.533596708764614	-10.44502015843958	0.0	11.00047524230085	-8.36316573030665	0.0	10.685533279952148	-9.380715478052933	0.0	10.859128898638634	-10.49313085535932	0.0	10.471593644820056	-10.820095962627546	0.0	10.51833076832977	-10.85110314653656	0.0	11.002339478019152	-10.649946184584165	0.0	10.864444463637875	-6.836362422171548	0.0	10.6222506831164	-6.307842677635597	0.0	10.63848870080718	-6.686505819771622	0.0	11.286160543268178	-6.826653476071814	0.0	11.877512949434644	-6.652505376850762	0.0	12.482315412315208	-6.382788184545336	0.0	10.632016378177353	-7.118803326654852	0.0	10.92975660053565	-7.54908159645981	0.0	11.138189730225498	-7.791362062181947	0.0
440	17.6	11.08726595835953	-8.34034476797765	0.0	11.27339069914541	-8.311957150723998	0.0	11.122961543224202	-9.24390642363693	0.0	11.413776781441655	-10.26788069074811	0.0	11.16731191460857	-10.58380941176766	0.0	11.28672064589161	-10.55335478658813	0.0	11.526869532084737	-10.42498798619354	0.0	10.887136740773824	-8.363574856811574	0.0	10.503473925658671	-9.355153019774862	0.0	10.525075615017895	-10.47591421578592	0.0	10.12133389142793	-10.759061220028965	0.0	10.162301674617545	-10.787174840991785	0.0	10.640033104364173	-10.639337326702295	0.0	10.739786976036992	-6.869912880186727	0.0	10.502677057230594	-6.314806110039497	0.0	10.51347685086055	-6.701953030370657	0.0	11.1591873617304	-6.852869998672839	0.0	11.78351170483873	-6.692148076931385	0.0	12.378382987884088	-6.4573806068040005	0.0	10.502069023951725	-7.173965916807875	0.0	10.69463016899147	-7.6742090019513585	0.0	10.782766495246113	-8.16192692663546	0.0
441	17.64	10.977803340626842	-8.375008677802793	0.0	11.172091928947452	-8.344971827119716	0.0	11.07072132159717	-9.260496500824248	0.0	11.381696347675433	-10.272265944239878	0.0	11.125673744109147	-10.619673553304866	0.0	11.243662319282024	-10.581414605051284	0.0	11.498204462498226	-10.431242934940887	0.0	10.77851842296984	-8.399622096478938	0.0	10.33364219535594	-9.372891873588056	0.0	10.204293406815587	-10.455926059705904	0.0	9.812259435551066	-10.696471393285105	0.0	9.835547519248264	-10.727586874907768	0.0	10.285133119883028	-10.632525503294888	0.0	10.618030638298206	-6.9289948864820685	0.0	10.392082009064763	-6.356315433680633	0.0	10.405488681830343	-6.746452206257679	0.0	11.035381360287028	-6.906112613967178	0.0	11.686572510282547	-6.779766821437262	0.0	12.297232242343958	-6.573144495903757	0.0	10.365504412673515	-7.257521501041563	0.0	10.454949244227976	-7.818416736140768	0.0	10.42383294053562	-8.472318601533019	0.0
442	17.68	10.859226272546925	-8.433307820395019	0.0	11.06858012212477	-8.413432352376224	0.0	11.018126579929943	-9.305445410962033	0.0	11.33657866643081	-10.294213077323906	0.0	11.10054590114601	-10.625641838977954	0.0	11.210266032094605	-10.591255717180486	0.0	11.435923857785115	-10.464098125462066	0.0	10.656843338180066	-8.461405617185301	0.0	10.169574380882558	-9.427079718955998	0.0	9.916479804341906	-10.463421091861301	0.0	9.588328799213633	-10.655753160956051	0.0	9.574488962284825	-10.693954558286192	0.0	9.971109690348532	-10.643843057539128	0.0	10.501035017989677	-7.009523320363023	0.0	10.291814779891249	-6.429354527145541	0.0	10.30724406847968	-6.82282430317325	0.0	10.92900338648826	-6.994269862009421	0.0	11.580164272339479	-6.914632447896985	0.0	12.235419272867839	-6.710116439420228	0.0	10.22288521273142	-7.355547599546335	0.0	10.228116720749297	-7.97832937806809	0.0	10.072526036754486	-8.65070914806887	0.0
443	17.72	10.731361329937393	-8.52552135644743	0.0	10.957059697418204	-8.517545039902997	0.0	10.950796522793542	-9.38088614877027	0.0	11.283765902086468	-10.340276888037904	0.0	11.10213436225097	-10.632258720300573	0.0	11.211638969789163	-10.610164338916094	0.0	11.366247784257542	-10.51363468358503	0.0	10.511914728472439	-8.557970678615822	0.0	10.005128978430275	-9.499108774579724	0.0	9.701198379577034	-10.519707007286392	0.0	9.466677547539609	-10.648323895689678	0.0	9.407479496724452	-10.69683379859466	0.0	9.744562462453942	-10.69126124052613	0.0	10.39663394109752	-7.114346287187318	0.0	10.207424576632233	-6.525420306829158	0.0	10.204677819591863	-6.924422436431633	0.0	10.843114151471969	-7.126755926075082	0.0	11.492789591741449	-7.080757046386448	0.0	12.176744239928183	-6.865225766058474	0.0	10.086811021346673	-7.45493024498449	0.0	10.018453357526033	-8.135590659734175	0.0	9.761845306256303	-8.752991142816507	0.0
